<?xml version="1.0" encoding="utf-8"?>
<!-- Generator: Adobe Illustrator 22.1.0, SVG Export Plug-In . SVG Version: 6.00 Build 0)  -->
<svg version="1.1" id="Layer_1" xmlns="http://www.w3.org/2000/svg" xmlns:xlink="http://www.w3.org/1999/xlink" x="0px" y="0px"
	 viewBox="0 0 224.4 114.7" style="enable-background:new 0 0 224.4 114.7;" xml:space="preserve">
<style type="text/css">
	.st0{fill:#FFFFFF;}
</style>
<g>
	<g>
		<path class="st0" d="M222.8,37.3c-0.8,0.8-1.8,1.2-2.8,1.2c-1,0-2.1-0.4-2.8-1.2c-0.7-0.7-1.2-1.7-1.2-2.8c0-2.1,1.9-4,4-4
			c1,0,2.1,0.4,2.8,1.2c0.8,0.8,1.2,1.8,1.2,2.8C223.9,35.5,223.5,36.6,222.8,37.3"/>
		<path class="st0" d="M190.3,40.1c-1.5-0.8-2.1-2.7-1.3-4.2c0.8-1.5,2.6-2,4.1-1.2c1.5,0.8,2.1,2.7,1.3,4.2
			c-0.1,0.3-0.3,0.5-0.5,0.7C192.9,40.5,191.5,40.7,190.3,40.1"/>
		<path class="st0" d="M203.8,37.5c-1.7-1.3-1.9-3.7-0.7-5.3l0,0c1.3-1.6,3.6-1.9,5.3-0.6c1.7,1.3,1.9,3.7,0.7,5.3
			c-0.1,0.1-0.2,0.2-0.3,0.3C207.5,38.5,205.3,38.7,203.8,37.5"/>
		<path class="st0" d="M180.4,44c-0.4,0.4-0.9,0.6-1.5,0.6c-0.6,0-1.1-0.2-1.5-0.6c-0.4-0.4-0.6-0.9-0.6-1.5c0-1.1,1-2.1,2.1-2.1
			c0.6,0,1.1,0.2,1.5,0.6c0.4,0.4,0.6,1,0.6,1.5C181,43,180.8,43.6,180.4,44"/>
		<path class="st0" d="M81.4,37.6c0.8-0.8,1.2-1.8,1.2-2.8c0-1-0.4-2.1-1.2-2.8c-0.7-0.7-1.7-1.2-2.8-1.2c-2.1,0-4,1.9-4,4
			c0,1,0.4,2.1,1.2,2.8c0.8,0.8,1.8,1.2,2.8,1.2C79.7,38.8,80.7,38.3,81.4,37.6"/>
		<path class="st0" d="M109,39.9L109,39.9c-0.2,0.2-0.4,0.4-0.7,0.5c-1.5,0.8-3.4,0.2-4.2-1.3c-0.8-1.5-0.2-3.4,1.2-4.1
			c1.5-0.8,3.4-0.2,4.2,1.3C110.2,37.5,110,38.9,109,39.9"/>
		<path class="st0" d="M95.6,37.5L95.6,37.5c-0.1,0.1-0.2,0.2-0.3,0.3c-1.7,1.3-4,1-5.3-0.7c-1.3-1.7-1-4,0.6-5.3l0,0
			c1.6-1.3,4-1,5.3,0.7C97.1,34.1,96.9,36.2,95.6,37.5"/>
		<path class="st0" d="M180,29.9c-1.6-0.7-2.3-2.5-1.6-4.1c0.7-1.5,2.5-2.3,4-1.6c1.6,0.7,2.3,2.5,1.6,4.1c-0.2,0.4-0.4,0.7-0.7,1
			C182.6,30.1,181.2,30.4,180,29.9"/>
		<path class="st0" d="M222.5,9.4c-1,1-2.3,1.5-3.6,1.5c-1.3,0-2.6-0.5-3.5-1.5c-1-1-1.5-2.2-1.5-3.6c0-2.6,2.4-5,5-5
			c1.3,0,2.6,0.5,3.6,1.5c0.9,0.9,1.5,2.2,1.5,3.6C223.9,7.2,223.4,8.5,222.5,9.4"/>
		<path class="st0" d="M159,26.2c-1.4-0.3-2.2-1.7-1.9-3.1c0.3-1.4,1.7-2.2,3.1-1.9c1.3,0.3,2.2,1.7,1.9,3.1
			c-0.1,0.5-0.4,0.9-0.7,1.2C160.7,26.1,159.8,26.4,159,26.2"/>
		<path class="st0" d="M169.5,20.1c-1.6-0.6-2.4-2.3-1.8-3.8c0.6-1.5,2.3-2.4,3.9-1.8c1.5,0.6,2.4,2.3,1.8,3.8l0,0
			c-0.2,0.4-0.4,0.8-0.7,1.1C171.8,20.2,170.6,20.5,169.5,20.1"/>
		<path class="st0" d="M180.3,16.2c-1.9-0.9-2.7-3.3-1.7-5.2c1-1.9,3.3-2.7,5.3-1.7c1.9,1,2.7,3.3,1.7,5.2c-0.2,0.4-0.4,0.7-0.7,1
			C183.7,16.6,181.8,17,180.3,16.2"/>
		<path class="st0" d="M191.6,13.3c-2.1-1.4-2.7-4.2-1.3-6.3c1.4-2.1,4.2-2.7,6.3-1.3c2.1,1.5,2.6,4.3,1.3,6.4
			c-0.1,0.3-0.4,0.5-0.5,0.7C195.8,14.3,193.5,14.6,191.6,13.3"/>
		<path class="st0" d="M203.5,10.7c-1.9-1.6-2.1-4.5-0.5-6.4c1.6-1.9,4.5-2.2,6.4-0.5c1.9,1.6,2.1,4.5,0.5,6.5
			c-0.1,0.1-0.2,0.2-0.3,0.3C208,12.2,205.4,12.3,203.5,10.7"/>
		<path class="st0" d="M222.7,23.9c-0.8,0.8-2,1.3-3.2,1.3c-1.2,0-2.3-0.5-3.1-1.3c-0.8-0.8-1.3-1.9-1.3-3.1c0-2.3,2.1-4.4,4.4-4.4
			c1.1,0,2.3,0.5,3.1,1.3c0.8,0.8,1.3,2,1.2,3.1C223.9,21.9,223.5,23.1,222.7,23.9"/>
		<path class="st0" d="M158.7,41.9c-1.3-0.2-2.2-1.4-2-2.6c0.2-1.3,1.4-2.2,2.6-2c1.3,0.2,2.2,1.4,2,2.6c-0.1,0.5-0.3,1-0.6,1.3
			C160.1,41.7,159.4,42,158.7,41.9"/>
		<path class="st0" d="M168.9,35.2c-1.5-0.4-2.4-2-1.9-3.5c0.4-1.5,2-2.4,3.5-1.9c1.5,0.4,2.4,2,1.9,3.5c-0.2,0.5-0.4,0.9-0.7,1.2
			C171,35.2,170,35.5,168.9,35.2"/>
		<path class="st0" d="M191.5,26.4c-1.7-1.1-2.3-3.4-1.2-5.1c1.1-1.7,3.3-2.2,5-1.2c1.7,1.1,2.3,3.3,1.2,5.1
			c-0.2,0.3-0.3,0.5-0.5,0.7C194.9,27,193,27.3,191.5,26.4"/>
		<path class="st0" d="M203.6,24.2c-1.7-1.4-1.9-3.9-0.6-5.6c1.4-1.7,3.9-1.9,5.6-0.5c1.7,1.4,2,3.9,0.6,5.6l0,0
			c-0.1,0.1-0.2,0.2-0.3,0.3C207.5,25.3,205.2,25.5,203.6,24.2"/>
		<path class="st0" d="M83.2,9.5c1-1,1.5-2.3,1.5-3.6c0-1.3-0.5-2.6-1.5-3.5c-1-1-2.2-1.5-3.6-1.5c-2.6,0-5,2.4-5,5
			c0,1.3,0.5,2.6,1.5,3.6c0.9,0.9,2.2,1.5,3.6,1.5C81,10.9,82.3,10.4,83.2,9.5"/>
		<path class="st0" d="M140.8,25.9L140.8,25.9c-0.3,0.3-0.7,0.6-1.2,0.7c-1.4,0.3-2.7-0.5-3.1-1.9c-0.3-1.4,0.5-2.7,1.9-3.1
			c1.4-0.3,2.7,0.5,3.1,1.9C141.7,24.4,141.5,25.2,140.8,25.9"/>
		<path class="st0" d="M130.2,19.8L130.2,19.8c-0.3,0.3-0.7,0.5-1.1,0.7l0,0c-1.5,0.6-3.3-0.3-3.8-1.8c-0.6-1.5,0.2-3.3,1.8-3.9
			c1.5-0.6,3.3,0.2,3.8,1.8C131.3,17.7,131,19,130.2,19.8"/>
		<path class="st0" d="M119.3,15.8L119.3,15.8c-0.3,0.3-0.6,0.5-1,0.7c-1.9,1-4.3,0.2-5.2-1.7c-1-2-0.2-4.3,1.7-5.3
			c1.9-1,4.3-0.2,5.2,1.7C120.8,12.8,120.4,14.7,119.3,15.8"/>
		<path class="st0" d="M107.7,13.1L107.7,13.1c-0.2,0.2-0.4,0.4-0.7,0.5c-2.1,1.4-4.9,0.8-6.4-1.3c-1.4-2.1-0.8-4.9,1.3-6.3
			c2.1-1.4,4.9-0.8,6.3,1.3C109.5,9.2,109.2,11.6,107.7,13.1"/>
		<path class="st0" d="M95.3,11L95.3,11c-0.1,0.1-0.2,0.2-0.3,0.3c-1.9,1.6-4.8,1.4-6.5-0.5c-1.6-1.9-1.4-4.8,0.5-6.4
			c1.9-1.6,4.8-1.4,6.4,0.5C97.1,6.7,97,9.3,95.3,11"/>
		<path class="st0" d="M82.2,24.2c0.8-0.8,1.3-2,1.3-3.2c0-1.2-0.5-2.3-1.3-3.1c-0.8-0.8-1.9-1.3-3.1-1.3c-2.3,0-4.4,2.1-4.4,4.4
			c0,1.1,0.5,2.3,1.3,3.1c0.8,0.8,2,1.3,3.1,1.2C80.2,25.5,81.4,25,82.2,24.2"/>
		<path class="st0" d="M141.3,41.6L141.3,41.6c-0.3,0.3-0.8,0.6-1.3,0.6c-1.3,0.2-2.5-0.7-2.6-2c-0.2-1.3,0.7-2.5,2-2.6
			c1.3-0.2,2.5,0.7,2.6,2C142,40.3,141.8,41.1,141.3,41.6"/>
		<path class="st0" d="M130.9,34.9L130.9,34.9c-0.3,0.3-0.7,0.6-1.2,0.7c-1.5,0.4-3-0.5-3.5-1.9c-0.4-1.5,0.4-3.1,1.9-3.5
			c1.5-0.4,3,0.5,3.5,1.9C131.9,33.1,131.6,34.2,130.9,34.9"/>
		<path class="st0" d="M119.5,29.5L119.5,29.5c-0.3,0.3-0.6,0.5-1,0.7c-1.5,0.7-3.4,0-4.1-1.6c-0.6-1.6,0.1-3.4,1.6-4
			c1.5-0.7,3.4,0,4.1,1.6C120.6,27.4,120.3,28.7,119.5,29.5"/>
		<path class="st0" d="M107.7,26.2L107.7,26.2c-0.2,0.2-0.4,0.4-0.7,0.5c-1.7,1.1-4,0.5-5.1-1.2c-1-1.7-0.5-4,1.2-5.1
			c1.7-1.1,4-0.5,5.1,1.2C109.2,23.1,108.9,25,107.7,26.2"/>
		<path class="st0" d="M94.9,24.3L94.9,24.3l-0.3,0.3l0,0c-1.7,1.4-4.2,1.2-5.6-0.6c-1.4-1.7-1.2-4.2,0.5-5.6
			c1.7-1.4,4.2-1.1,5.6,0.6C96.5,20.5,96.4,22.8,94.9,24.3"/>
		<path class="st0" d="M121.2,44.3c0.4-0.4,0.6-0.9,0.6-1.5c0-0.6-0.2-1.1-0.6-1.5c-0.4-0.4-0.9-0.6-1.5-0.6c-1.1,0-2.1,1-2.1,2.1
			c0,0.6,0.2,1.1,0.6,1.5c0.4,0.4,1,0.6,1.5,0.6C120.2,44.9,120.8,44.7,121.2,44.3"/>
		<path class="st0" d="M150.9,33.1c-0.4,0.4-1,0.7-1.7,0.7c-0.6,0-1.2-0.2-1.7-0.7c-0.5-0.5-0.7-1.1-0.7-1.7c0-1.2,1.1-2.4,2.4-2.4
			c0.6,0,1.2,0.3,1.7,0.7c0.4,0.4,0.7,1,0.7,1.7C151.6,32,151.3,32.6,150.9,33.1"/>
		<path class="st0" d="M150.7,50c-0.4,0.4-1,0.6-1.5,0.6c-0.6,0-1.1-0.2-1.5-0.6c-0.4-0.4-0.7-1-0.6-1.5c0-1.1,1-2.1,2.1-2.1
			c0.6,0,1.1,0.2,1.5,0.6c0.4,0.4,0.6,1,0.6,1.5C151.4,49.1,151.1,49.6,150.7,50"/>
		<path class="st0" d="M71.2,101.9c-0.4,0.5-0.5,1.2-0.6,2.1l0,0.2l0,6.7H72l0-4.8h2.2v-0.9H72v-0.1l0-1c0-0.5,0-0.9,0.1-1.3
			c0.1-0.3,0.2-0.6,0.4-0.8c0.2-0.2,0.4-0.3,0.6-0.4c0.2-0.1,0.4-0.1,0.8-0.1l0.1,0v0h0.7v-0.8h-0.8c-0.6,0-1.1,0.1-1.6,0.3
			C71.9,101.3,71.5,101.6,71.2,101.9"/>
		<path class="st0" d="M56.9,103.3h-1.3l0,4.3c0,0.5,0,0.9-0.1,1.3c-0.1,0.3-0.2,0.6-0.4,0.8c-0.2,0.2-0.4,0.3-0.6,0.4
			c-0.2,0.1-0.4,0.1-0.7,0.1c-0.3,0-0.5,0-0.7-0.1c-0.3-0.1-0.5-0.2-0.6-0.4c-0.2-0.2-0.3-0.5-0.4-0.8c-0.1-0.4-0.1-0.8-0.1-1.3
			l0-4.3h-1.3l0,4.4l0,0.2c0.1,0.9,0.1,1.5,0.6,2.1c0.3,0.3,0.7,0.6,1.1,0.8c0.4,0.1,0.8,0.2,1.3,0.2l0,0l0,0h0c0,0,0.1,0,0.1,0h0
			l0,0l0,0c0.5,0,1-0.1,1.3-0.2c0.1,0,0.1-0.1,0.2-0.1c0,0,0.1,0,0.1-0.1l0.1,0l0,1.4c0,0.5,0,0.9-0.1,1.3c-0.1,0.3-0.2,0.6-0.4,0.8
			c-0.2,0.2-0.4,0.3-0.6,0.4c-0.2,0.1-0.5,0.1-0.8,0.1l0.1,0.8c0.6,0,1.1-0.1,1.5-0.3c0.5-0.2,0.8-0.4,1.1-0.8
			c0.4-0.5,0.5-1.2,0.6-2.1l0-0.2l0-4.3l0-0.1L56.9,103.3z"/>
		<path class="st0" d="M14.9,102.5c0.4,0,0.7-0.3,0.7-0.7v-0.2c0-0.4-0.3-0.7-0.7-0.7c-0.4,0-0.7,0.3-0.7,0.7v0.2
			C14.2,102.2,14.5,102.5,14.9,102.5"/>
		<rect x="14.2" y="103.4" class="st0" width="1.4" height="7.6"/>
		<path class="st0" d="M29.1,102.5c0.4,0,0.7-0.3,0.7-0.7v-0.2c0-0.4-0.3-0.7-0.7-0.7c-0.4,0-0.7,0.3-0.7,0.7v0.2
			C28.4,102.2,28.7,102.5,29.1,102.5"/>
		<rect x="28.4" y="103.3" class="st0" width="1.4" height="7.7"/>
		<path class="st0" d="M130.1,102.4c0.4,0,0.7-0.3,0.7-0.7v-0.1c0-0.4-0.3-0.7-0.7-0.7c-0.4,0-0.7,0.3-0.7,0.7v0.1
			C129.4,102,129.7,102.4,130.1,102.4"/>
		<rect x="129.4" y="103.3" class="st0" width="1.4" height="7.7"/>
		<path class="st0" d="M98.2,108.4v-5.1h-1.4l0,4c0,1.4,0.5,2.1,0.9,2.6c0.3,0.3,0.7,0.6,1.1,0.8c0.4,0.1,0.8,0.2,1.3,0.3v0h4v-7.7
			h-1.4v6.9h-2.6C99.1,110.2,98.2,109.4,98.2,108.4"/>
		<path class="st0" d="M88.1,104.3c-0.6,0.7-0.9,1.5-0.9,2.6v0.4c0,1.4,0.5,2.1,0.9,2.6c0.3,0.3,0.7,0.6,1.1,0.8
			c0.4,0.1,0.8,0.2,1.3,0.3l0,0v0h4.2v-10.1h-1.4v2.4h-2.8l0,0c-0.5,0-1,0.1-1.3,0.3C88.7,103.7,88.4,104,88.1,104.3 M90.7,104h2.7
			v6.2h-2.7c-1,0-1.9-0.8-1.9-1.9v-2.5C88.8,104.9,89.7,104,90.7,104"/>
		<path class="st0" d="M147.3,103.5c-0.4-0.1-0.8-0.2-1.3-0.2l-0.1,0v0h-4v7.7h1.4V104h2.7c1,0,1.9,0.8,1.9,1.9v5.1h1.4l0-4
			c0-1.1-0.3-1.9-0.9-2.6C148.1,104,147.7,103.7,147.3,103.5"/>
		<path class="st0" d="M106,106.4v0.9c0,1.1,0.3,1.9,0.9,2.6c0.3,0.3,0.7,0.6,1.1,0.8c0.4,0.1,0.8,0.2,1.3,0.2l0,0v0h3.3v-0.7h-3.2
			c-1,0-1.8-0.8-1.8-1.8c0,0-0.1-0.9-0.1-1.3c0-0.5,0.1-1.2,0.1-1.2c0-1,0.8-1.8,1.8-1.8h3.2v-0.7l-3.4,0c-0.5,0-0.9,0.1-1.3,0.2
			c-0.4,0.2-0.8,0.4-1.1,0.8C106.4,104.8,106,105.4,106,106.4"/>
		<path class="st0" d="M37.3,107.4c-0.3-0.4-0.7-0.6-1.2-0.8c-0.3-0.1-0.6-0.1-0.9-0.2c-0.8-0.1-1.6-0.2-1.8-1.1
			c-0.1-0.6,0.4-1.1,1-1.2c0.2-0.1,0.5-0.1,0.8-0.1l1.5,0V103c-0.3,0-0.5,0-0.8,0c-0.8,0-1.7-0.1-2.4,0.2c-0.5,0.2-0.8,0.4-1.1,0.7
			c-0.6,0.7-0.6,1.8,0,2.5c0.3,0.4,0.7,0.6,1.2,0.8c0.3,0.1,0.7,0.2,1,0.2l0.1,0c0.4,0,1,0.1,1.3,0.5c0.4,0.4,0.4,0.8,0.2,1.2
			c-0.5,0.8-1.3,0.9-2.1,0.9h-1.6v1c0.3,0,2.3,0,2.5,0c1.1-0.1,1.8-0.5,2.4-1c0.4-0.5,0.6-1.1,0.4-1.7
			C37.7,107.9,37.5,107.6,37.3,107.4"/>
		<polygon class="st0" points="5.6,108.7 1.7,100.9 0,100.9 0,111 1.4,111 1.4,103.8 5.1,111 5.8,111 9.5,103.5 9.8,103 9.8,111 
			11.3,111 11.3,100.9 9.6,100.9 5.8,108.7 5.6,108.7 		"/>
		<polygon class="st0" points="80.9,106 84.4,106 84.4,105.2 80.9,105.2 80.9,101.8 86.2,101.8 86.2,100.9 79.4,100.9 79.4,111 
			86.2,111 86.2,110.2 80.9,110.2 		"/>
		<path class="st0" d="M41,109.7c-0.2-0.2-0.3-0.5-0.4-0.8c-0.1-0.4-0.1-0.8-0.1-1.3l0-3.3h2.2v-1h-2.2l0-2.3h-1.3l0,6.6l0,0.2
			c0.1,0.9,0.1,1.5,0.6,2.1c0.3,0.3,0.7,0.6,1.1,0.8c0.4,0.2,0.9,0.2,1.6,0.2H43v-0.7h-0.5c-0.3,0-0.6,0-0.8-0.1
			C41.4,110,41.2,109.8,41,109.7"/>
		<path class="st0" d="M44.8,106.5l0,0.3l0,4.2h1.4l0-4.1c0-0.5,0-0.9,0.1-1.3c0.1-0.4,0.2-0.6,0.4-0.8c0.2-0.2,0.4-0.4,0.7-0.4
			c0.2-0.1,0.5-0.1,0.9-0.1h0.6v-0.8l-0.7,0c-0.6,0-1.1,0.1-1.6,0.3c-0.5,0.2-0.9,0.5-1.2,0.8C44.9,104.9,44.8,105.6,44.8,106.5"/>
		<path class="st0" d="M138.3,103.5c-0.4-0.1-0.8-0.2-1.3-0.2l-0.1,0h-0.8l0,0c-0.5,0-0.9,0.1-1.3,0.2c-0.4,0.2-0.8,0.4-1.1,0.8
			c-0.4,0.5-0.8,1.2-0.8,2.6v0.5c0,1.1,0.3,1.9,0.8,2.6c0.3,0.3,0.7,0.6,1.1,0.8c0.4,0.1,0.8,0.2,1.3,0.2h0.9c0.5,0,0.9-0.1,1.3-0.2
			c0.4-0.2,0.8-0.4,1.1-0.8c0.6-0.7,0.8-1.5,0.8-2.6v-0.5c0-1.1-0.3-1.9-0.8-2.6C139.1,104,138.7,103.7,138.3,103.5 M138.7,108.4
			c-0.1,0.4-0.2,0.8-0.4,1c-0.3,0.5-0.9,0.8-1.5,0.8h-0.6c-1.5,0-1.8-1.5-1.9-2.2c-0.1-0.9-0.2-2.6,0.6-3.4c0.3-0.4,0.8-0.6,1.3-0.6
			h0.6c1.5,0,1.8,1.5,1.9,2.1C138.8,106.6,138.9,107.6,138.7,108.4"/>
		<path class="st0" d="M113.7,107l0,1c0.1,0.8,0.4,1.4,0.8,2c0.3,0.3,0.7,0.6,1.2,0.8c0.2,0.1,0.4,0.1,0.7,0.2
			c0.5,0.1,0.9,0.1,1.4,0.1c0.3,0,0.5,0,0.8-0.1l0,0c0.3-0.1,0.5-0.1,0.8-0.2c0.2-0.1,0.4-0.2,0.5-0.3l0.1,0v0.6h1.4v-7.7h-4.3l0,0
			c-0.5,0-1,0.1-1.4,0.3c-0.5,0.2-0.8,0.4-1.2,0.8C114,105,113.7,105.9,113.7,107 M115.4,105.9c0-1,0.8-1.9,1.9-1.9h2.7v3.7l0,0.6
			c0,1-0.9,1.9-2,1.9h-0.7c-1,0-1.9-0.8-1.9-1.9c0,0-0.1-0.6-0.1-1.2C115.3,106.5,115.4,105.9,115.4,105.9"/>
		<path class="st0" d="M126.2,110.1c-0.3-0.1-0.5-0.2-0.6-0.4c-0.2-0.2-0.3-0.5-0.4-0.8c-0.1-0.4-0.1-0.8-0.1-1.3l0-3.4h2.2v-0.9
			h-2.2l0-2.3h-1.3l0,6.6l0,0.2c0.1,0.9,0.1,1.5,0.6,2.1c0.3,0.3,0.7,0.6,1.1,0.8c0.4,0.2,0.9,0.2,1.6,0.2h0.6v-0.7h-0.5
			C126.8,110.2,126.5,110.2,126.2,110.1"/>
		<path class="st0" d="M67.3,103.5c-0.4-0.1-0.8-0.2-1.3-0.2l-0.1,0h-0.8l0,0c-0.5,0-0.9,0.1-1.3,0.2c-0.4,0.2-0.8,0.4-1.1,0.8
			c-0.6,0.7-0.8,1.5-0.8,2.6v0.5c0,1.1,0.3,1.9,0.8,2.6c0.3,0.3,0.7,0.6,1.1,0.8c0.4,0.1,0.8,0.2,1.3,0.2h0.9c0.5,0,0.9-0.1,1.3-0.2
			c0.4-0.2,0.8-0.4,1.1-0.8c0.6-0.7,0.8-1.5,0.8-2.6v-0.5c0-1.1-0.3-1.9-0.8-2.6C68.1,103.9,67.7,103.7,67.3,103.5 M67.7,108.4
			c-0.1,0.4-0.2,0.8-0.4,1c-0.3,0.5-0.9,0.8-1.5,0.8h-0.6c-1.5,0-1.8-1.5-1.9-2.2c-0.1-0.9-0.2-2.7,0.6-3.4c0.3-0.4,0.8-0.6,1.3-0.6
			h0.6c1.5,0,1.8,1.5,1.9,2.1C67.8,106.6,67.8,107.6,67.7,108.4"/>
		<path class="st0" d="M23.6,103.5c-0.4-0.1-0.8-0.2-1.3-0.2l-0.1,0v0h-4v7.7h1.4V104h2.7c1,0,1.9,0.8,1.9,1.9v5.1h1.4l0-4
			c0-1.1-0.3-1.9-0.9-2.6C24.5,104,24.1,103.7,23.6,103.5"/>
		<path class="st0" d="M105.9,73.4c0.7,0,1.3-0.6,1.3-1.3c0-0.7-0.6-1.3-1.3-1.3c-0.7,0-1.3,0.6-1.3,1.3
			C104.7,72.9,105.2,73.4,105.9,73.4"/>
		<path class="st0" d="M130.5,76.1l0,10.2c0,0.6-0.1,1.2-0.2,1.7c-0.1,0.5-0.3,0.8-0.5,1.1c-0.2,0.2-0.5,0.4-0.8,0.5
			c-0.3,0.1-0.7,0.1-1.1,0.1h-0.1l0.1,1.3h0c0.8,0,1.5-0.1,2.1-0.4c0.6-0.2,1.2-0.6,1.6-1.1c0.7-0.8,1.1-1.9,1.2-3.2l0-10.3H130.5z"
			/>
		<rect x="124.3" y="70.9" class="st0" width="2.3" height="14.9"/>
		<path class="st0" d="M118.3,76.1L118.3,76.1l0,10.2c0,0.6-0.1,1.2-0.2,1.7c-0.1,0.5-0.3,0.8-0.5,1.1c-0.2,0.2-0.5,0.4-0.8,0.5
			c-0.3,0.1-0.7,0.1-1.1,0.1h-0.1l0.1,1.3h0c0.8,0,1.5-0.1,2.1-0.4c0.6-0.2,1.1-0.6,1.6-1.1c0.7-0.8,1.1-1.9,1.2-3.2l0-10.3H118.3z"
			/>
		<path class="st0" d="M100.6,81.2v4.7h13.3v-9.7h-8.3C102.8,76.1,100.6,78.4,100.6,81.2 M111.6,78.1v5.7h-8.6v-2.9
			c0-1.6,1.3-2.9,2.9-2.9H111.6z"/>
		<path class="st0" d="M74.5,73.4c0.7,0,1.3-0.6,1.3-1.3c0-0.7-0.6-1.3-1.3-1.3c-0.7,0-1.3,0.6-1.3,1.3
			C73.2,72.9,73.8,73.4,74.5,73.4"/>
		<path class="st0" d="M17,88.4c-0.7,0-1.3,0.6-1.3,1.3c0,0.7,0.6,1.3,1.3,1.3c0.7,0,1.3-0.6,1.3-1.3C18.3,89,17.7,88.4,17,88.4"/>
		<path class="st0" d="M20.7,88.4c-0.7,0-1.3,0.6-1.3,1.3c0,0.7,0.6,1.3,1.3,1.3c0.7,0,1.3-0.6,1.3-1.3C22,89,21.4,88.4,20.7,88.4"
			/>
		<path class="st0" d="M78.1,73.4c0.7,0,1.3-0.6,1.3-1.3c0-0.7-0.6-1.3-1.3-1.3c-0.7,0-1.3,0.6-1.3,1.3
			C76.9,72.9,77.4,73.4,78.1,73.4"/>
		<path class="st0" d="M109.6,73.4c0.7,0,1.3-0.6,1.3-1.3c0-0.7-0.6-1.3-1.3-1.3c-0.7,0-1.3,0.6-1.3,1.3
			C108.4,72.9,108.9,73.4,109.6,73.4"/>
		<path class="st0" d="M131.8,70.9c-0.7,0-1.3,0.6-1.3,1.3c0,0.7,0.6,1.3,1.3,1.3c0.7,0,1.3-0.6,1.3-1.3
			C133,71.4,132.5,70.9,131.8,70.9"/>
		<path class="st0" d="M84.3,83.8h-5.8v-7.6h-2.3v7.6H52.9v-2.7c0-1.7,1.3-3,3-3h9.9v-1.9H55.7c-2.9,0-5.2,2.3-5.2,5.2v2.5H31.7
			V70.9h-2.3v12.9h-6.5v-7.6h-2.3v7.6h-4.4l0-2.3l0,0v0c0-1.6-0.5-2.9-1.5-3.9c-0.9-0.9-2.2-1.3-3.8-1.4H1.6l0,0l0,9.8
			c0,0.6-0.1,1.2-0.2,1.7c-0.1,0.4-0.3,0.8-0.5,1.1c-0.2,0.2-0.5,0.4-0.8,0.5c0,0-0.1,0-0.2,0v1.3c0.5-0.1,0.9-0.2,1.3-0.3
			c0.6-0.2,1.2-0.6,1.6-1.1c0.7-0.8,1.1-1.9,1.2-3.2v-0.3h82.6V70.9h-2.4V83.8z M4.2,78.1l6.7,0h0.2c0.1,0,0.2,0,0.3,0
			c1.4,0.3,2.4,1.5,2.4,2.9v2.8H4.1l0-5.6C4,78.1,4.1,78.1,4.2,78.1"/>
		<path class="st0" d="M149.3,76.1h-8.2c-2.8,0-5.1,2.3-5.1,5.1v4.6h10.9l0,0.6c0,0.6-0.1,1.2-0.2,1.7c-0.1,0.4-0.3,0.8-0.5,1.1
			c-0.2,0.2-0.5,0.4-0.8,0.5c-0.1,0-0.3,0.1-0.4,0.1V91c0.6,0,1.1-0.2,1.6-0.3c0.6-0.2,1.1-0.6,1.6-1.1c0.7-0.8,1.1-1.9,1.2-3.2
			L149.3,76.1z M141.3,78.1h5.6v0.1l0,5.6h-8.6V81C138.3,79.4,139.6,78.1,141.3,78.1"/>
		<path class="st0" d="M90.2,70.9C90.2,70.9,90.2,70.9,90.2,70.9l0,14.9c0,0,0,0,0,0h2.3c0,0,0,0,0,0V70.9c0,0,0,0,0,0H90.2z"/>
	</g>
</g>
</svg>
